<?xml version="1.0" encoding="UTF-8"?>
<svg version="1.1" xmlns="http://www.w3.org/2000/svg" width="870" height="198">
<path d="M0 0 C0.85980469 0.67417969 1.71960938 1.34835938 2.60546875 2.04296875 C5.57891354 4.47314141 7.67703795 6.94696417 10 10 C10 10.66 10 11.32 10 12 C10.61818604 12.06993164 11.23637207 12.13986328 11.87329102 12.21191406 C58.75522706 17.62454779 58.75522706 17.62454779 70.37109375 31.65625 C72.70523407 35.20995844 73.70413012 38.71004446 73.43359375 42.96484375 C71.65895849 51.29443808 64.71959366 56.48814767 58 61 C55.59959298 62.46786496 53.16021375 63.84543114 50.6875 65.1875 C50.05231445 65.53466064 49.41712891 65.88182129 48.76269531 66.23950195 C44.52152035 68.45930762 40.55339827 69.58545375 35.875 70.6875 C32.57094993 71.67591465 32.57094993 71.67591465 30 74 C27.77557906 78.85274049 27.09925997 84.1977449 26.15625 89.4140625 C23.8069379 102.01138494 16.97476033 113.14882548 9 123 C8.36707031 123.83273438 7.73414063 124.66546875 7.08203125 125.5234375 C-6.04516699 141.13815361 -27.88930955 151.57779896 -47.94458008 153.82568359 C-74.21232613 156.05340312 -97.64362244 148.59487301 -118 132 C-124.99435548 125.63334309 -124.99435548 125.63334309 -127.25830078 121.95629883 C-129.56778792 119.36225335 -131.07479824 119.29515537 -134.48828125 118.875 C-135.58084229 118.72804687 -136.67340332 118.58109375 -137.79907227 118.4296875 C-138.95850342 118.28789062 -140.11793457 118.14609375 -141.3125 118 C-158.68025036 115.60559497 -176.55476814 112.49135279 -189 99 C-190.94266883 95.21690807 -191.49732197 92.22723672 -191 88 C-187.37125724 76.7463041 -176.85646822 71.11370589 -166.94677734 65.95654297 C-152.78866769 59 -152.78866769 59 -148 59 C-147.85304687 58.1028125 -147.70609375 57.205625 -147.5546875 56.28125 C-142.90025946 30.38765035 -130.7813313 8.38522608 -109 -7 C-74.9756091 -29.73693424 -30.9731558 -26.44714888 0 0 Z M-111.31738281 21.54541016 C-116.56582488 27.24333168 -116.56582488 27.24333168 -119 34 C-114.48605499 33.35019985 -110.65867314 31.58853559 -106.5625 29.6875 C-99.19512303 26.38987311 -91.85919225 23.88394029 -84 22 C-83.18708496 21.80164551 -82.37416992 21.60329102 -81.53662109 21.39892578 C-60.91444955 16.43773682 -40.18603658 13.77575134 -19 13 C-19 12.01 -19 11.02 -19 10 C-29.57936865 0.45276488 -46.23266237 -3.60876592 -60.1796875 -3.25 C-80.16671737 -1.47829652 -98.05365782 5.98585137 -111.31738281 21.54541016 Z M-47 25 C-48.33574048 25.19794868 -49.67168506 25.39452411 -51.0078125 25.58984375 C-69.82420182 28.4749644 -92.207065 32.88629907 -106 47 C-106.33 47.99 -106.66 48.98 -107 50 C-106.17201904 49.85997559 -105.34403809 49.71995117 -104.4909668 49.57568359 C-91.87985838 47.70816626 -79.32477444 47.62774294 -66.59350586 47.62939453 C-62.8372638 47.62502878 -59.08220674 47.58861924 -55.32617188 47.55078125 C-34.77745843 47.45479047 -16.40201655 50.34399899 3 57 C4.9997729 57.66734759 6.99969482 58.33424957 9 59 C9.9918109 48.0900801 4.34658548 37.20949348 -1 28 C-1.46921875 27.06929687 -1.9384375 26.13859375 -2.421875 25.1796875 C-6.76658827 21.50642992 -11.766311 22.39759154 -17.25 22.5625 C-18.42425537 22.58207764 -19.59851074 22.60165527 -20.80834961 22.62182617 C-29.66378722 22.82478995 -38.25889705 23.53082942 -47 25 Z M21 27 C21.18175781 27.59425781 21.36351562 28.18851563 21.55078125 28.80078125 C24.47942673 38.45780199 27.16888417 48.06888944 29 58 C35.72771053 56.53871234 40.15313708 52.49551846 44 47 C45.37608399 43.11458639 45.32041767 41.68262896 43.5625 37.9375 C38.53541858 32.17474813 32.19958045 29.27986714 25 27 C23.68 27 22.36 27 21 27 Z M-87.6875 57.875 C-88.60772949 57.95339111 -89.52795898 58.03178223 -90.47607422 58.11254883 C-95.54609584 58.59777846 -100.15494969 59.42254176 -105 61 C-103.65510397 64.26035402 -102.61462318 65.59908187 -99.375 67 C-73.03172502 77.67175733 -39.45900529 78.1203807 -12 72 C-12 71.01 -12 70.02 -12 69 C-26.10413127 60.68696899 -41.68965249 57.47606344 -58 57 C-59.30453125 56.96003906 -60.6090625 56.92007813 -61.953125 56.87890625 C-70.57365901 56.71016141 -79.09926041 57.12498242 -87.6875 57.875 Z M-148 73 C-149.77904957 74.21724444 -151.54794546 75.44933657 -153.3125 76.6875 C-154.29863281 77.37199219 -155.28476563 78.05648437 -156.30078125 78.76171875 C-159.87014939 81.72155658 -161.67196878 84.323396 -162.5625 88.875 C-161.72683738 93.51757009 -159.61482215 96.0348782 -156 99 C-150.67348543 102.06965062 -145.18783503 104.49828365 -139 105 C-139.65799692 102.30904799 -140.37793364 99.64678937 -141.15625 96.98828125 C-141.37410156 96.22966797 -141.59195313 95.47105469 -141.81640625 94.68945312 C-142.26694994 93.12284835 -142.72256359 91.55769149 -143.18359375 89.99414062 C-144.54253911 85.22174966 -145.3585152 80.69601357 -145.67382812 75.73901367 C-145.78146484 75.16513916 -145.88910156 74.59126465 -146 74 C-146.66 73.67 -147.32 73.34 -148 73 Z M-127 73 C-126.43847326 81.07194683 -124.6174032 87.66562885 -121.1875 94.9375 C-120.69056641 96.00085571 -120.69056641 96.00085571 -120.18359375 97.08569336 C-119.19133848 99.10478972 -118.12245039 101.05073444 -117 103 C-116.3503125 104.14339844 -115.700625 105.28679687 -115.03125 106.46484375 C-110.2147414 110.49308354 -105.39276038 109.80454414 -99.3125 109.625 C-98.07314697 109.6046167 -96.83379395 109.5842334 -95.55688477 109.56323242 C-69.55326597 108.84517401 -35.27500247 104.74891509 -14.37109375 87.48046875 C-12.77350492 86.09174392 -12.77350492 86.09174392 -13 84 C-12.34 83.67 -11.68 83.34 -11 83 C-11.84175781 83.06058594 -12.68351562 83.12117188 -13.55078125 83.18359375 C-89.65301105 88.3202967 -89.65301105 88.3202967 -123.14453125 73.734375 C-124.97735474 72.87732894 -124.97735474 72.87732894 -127 73 Z M-6.4375 100.625 C-30.14316031 111.63766226 -56.47570547 116.01511845 -82.28564453 118.70751953 C-83.31204292 118.81771927 -83.31204292 118.81771927 -84.35917664 118.93014526 C-86.22035828 119.12792763 -88.0826873 119.31482674 -89.94506836 119.50097656 C-92.7322428 119.95626183 -94.59710576 120.56426421 -97 122 C-93.84687864 125.58803465 -90.75422405 127.27038405 -86.375 129.125 C-85.22773437 129.62257812 -84.08046875 130.12015625 -82.8984375 130.6328125 C-66.1594051 136.96087643 -46.19592204 135.6892838 -30.08666992 128.48608398 C-17.58700862 122.57920063 -5.40919426 112.46232217 1 100 C1 99.34 1 98.68 1 98 C-1.91101975 98 -3.83197287 99.33053429 -6.4375 100.625 Z " fill="#FEFEFE" transform="translate(203,33)"/>
<path d="M0 0 C10.23 0 20.46 0 31 0 C35.49324619 10.10980392 35.49324619 10.10980392 36.9296875 14.78515625 C37.24744141 15.80359619 37.56519531 16.82203613 37.89257812 17.87133789 C38.21677734 18.92442139 38.54097656 19.97750488 38.875 21.0625 C41.93892009 30.84208863 45.2482112 40.46420348 49 50 C51.68925716 45.93447593 53.26818772 41.73292522 54.75 37.125 C55.00168945 36.35849121 55.25337891 35.59198242 55.51269531 34.80224609 C58.01407861 27.11331758 60.34605425 19.37082979 62.63964844 11.61767578 C62.9184082 10.6842334 63.19716797 9.75079102 63.484375 8.7890625 C63.85127441 7.54697021 63.85127441 7.54697021 64.22558594 6.27978516 C64.97884646 4.06227357 65.90086037 2.06488852 67 0 C71.39656173 -0.02465504 75.7930872 -0.04283842 80.18969727 -0.05493164 C81.68644918 -0.05997121 83.18319616 -0.06680287 84.67993164 -0.07543945 C86.82699807 -0.08752159 88.97399962 -0.09323191 91.12109375 -0.09765625 C93.06133423 -0.10551147 93.06133423 -0.10551147 95.04077148 -0.11352539 C98 0 98 0 99 1 C99.09507821 3.58639038 99.12556376 6.1459856 99.11352539 8.73266602 C99.11367142 9.5423584 99.11381744 10.35205078 99.1139679 11.1862793 C99.11326854 13.87551508 99.1054751 16.56468249 99.09765625 19.25390625 C99.09579215 21.11335716 99.09436821 22.97280856 99.09336853 24.83226013 C99.08954271 29.73629096 99.07971188 34.64029236 99.06866455 39.54431152 C99.05845181 44.54451092 99.05387121 49.54471506 99.04882812 54.54492188 C99.03808967 64.36329421 99.02101248 74.18164466 99 84 C95.75201257 85.08266248 93.64103173 85.03436186 90.23828125 84.87890625 C89.23063721 84.83580322 88.22299316 84.7927002 87.18481445 84.74829102 C85.90695068 84.68697998 84.62908691 84.62566895 83.3125 84.5625 C79.249375 84.376875 75.18625 84.19125 71 84 C70.505 71.13 70.505 71.13 70 58 C68.11033205 60.83450193 67.17160409 63.0895051 66.08984375 66.2890625 C65.73986328 67.31257813 65.38988281 68.33609375 65.02929688 69.390625 C64.48885742 70.99164063 64.48885742 70.99164063 63.9375 72.625 C63.22004821 74.74307007 62.5001305 76.86030703 61.77734375 78.9765625 C61.46015381 79.91580566 61.14296387 80.85504883 60.81616211 81.82275391 C60 84 60 84 59 85 C57.5086609 85.01662231 56.01639195 84.963192 54.52734375 84.87890625 C53.62822266 84.83056641 52.72910156 84.78222656 51.80273438 84.73242188 C50.85720703 84.67634766 49.91167969 84.62027344 48.9375 84.5625 C47.98810547 84.51029297 47.03871094 84.45808594 46.06054688 84.40429688 C43.70673048 84.27418642 41.35329301 84.13920888 39 84 C35.96304816 77.62298592 33.70094227 71.21867098 31.75 64.4375 C30.38875 59.7659375 30.38875 59.7659375 29 55 C28.67 64.57 28.34 74.14 28 84 C25.28598706 85.35700647 23.15153684 85.1123861 20.1171875 85.09765625 C18.95058594 85.09443359 17.78398437 85.09121094 16.58203125 85.08789062 C15.35871094 85.07951172 14.13539063 85.07113281 12.875 85.0625 C11.64394531 85.05798828 10.41289062 85.05347656 9.14453125 85.04882812 C6.09630608 85.0370133 3.04817686 85.02054028 0 85 C-1.53206512 81.93586976 -1.13850278 78.73069635 -1.12939453 75.36914062 C-1.13114685 74.58202194 -1.13289917 73.79490326 -1.13470459 72.9839325 C-1.1391161 70.37468276 -1.13618757 67.76550046 -1.1328125 65.15625 C-1.13348574 63.34785957 -1.13445593 61.53946922 -1.13571167 59.7310791 C-1.13718769 55.93806091 -1.13503714 52.14506624 -1.13037109 48.35205078 C-1.12467386 43.48264951 -1.12795338 38.61330336 -1.13394356 33.74390411 C-1.13755174 30.00880516 -1.1364094 26.27371934 -1.13381577 22.53862 C-1.13314721 20.74281304 -1.13397244 18.94700491 -1.13629532 17.15119934 C-1.13882603 14.64438708 -1.1349753 12.1376649 -1.12939453 9.63085938 C-1.13141876 8.8837822 -1.13344299 8.13670502 -1.13552856 7.36698914 C-1.11426435 2.22852869 -1.11426435 2.22852869 0 0 Z " fill="#FEFEFE" transform="translate(301,46)"/>
<path d="M0 0 C0.02312297 10.93496471 0.04091485 21.86992366 0.05181217 32.8049078 C0.0570411 37.88191018 0.06413892 42.95889589 0.07543945 48.03588867 C0.08626799 52.93120552 0.09227676 57.82650629 0.09487724 62.72183418 C0.09673155 64.59382951 0.10035228 66.46582391 0.10573006 68.33781242 C0.11294004 70.95040699 0.11399096 73.56293427 0.11352539 76.17553711 C0.11712067 76.95740387 0.12071594 77.73927063 0.12442017 78.54483032 C0.11405216 83.88594784 0.11405216 83.88594784 -1 85 C-5.11803643 85.28106557 -9.24851451 85.23182165 -13.375 85.25 C-15.11910156 85.2809375 -15.11910156 85.2809375 -16.8984375 85.3125 C-18.5690625 85.32023437 -18.5690625 85.32023437 -20.2734375 85.328125 C-21.29872559 85.3374707 -22.32401367 85.34681641 -23.38037109 85.35644531 C-26 85 -26 85 -27.83959961 83.94897461 C-29.6349992 80.93347388 -29.36757916 77.89189914 -29.29296875 74.48828125 C-29.28872391 73.76005661 -29.28447906 73.03183197 -29.28010559 72.28153992 C-29.26332733 69.95814873 -29.22567855 67.6356285 -29.1875 65.3125 C-29.17245197 63.73634066 -29.15876377 62.16016771 -29.14648438 60.58398438 C-29.11342685 56.72232123 -29.06165194 52.86130822 -29 49 C-31.70939422 49.28361142 -34.41722661 49.5766105 -37.125 49.875 C-37.88554688 49.95363281 -38.64609375 50.03226563 -39.4296875 50.11328125 C-40.17734375 50.19707031 -40.925 50.28085938 -41.6953125 50.3671875 C-42.37609863 50.44050293 -43.05688477 50.51381836 -43.75830078 50.58935547 C-46.61375824 51.11243099 -49.26508309 52.03815813 -52 53 C-51.99214478 54.30203369 -51.99214478 54.30203369 -51.98413086 55.63037109 C-51.96710138 58.84700273 -51.95455592 62.06361141 -51.94506836 65.28027344 C-51.9400357 66.67318477 -51.93320902 68.0660908 -51.92456055 69.45898438 C-51.91244848 71.45961246 -51.90729588 73.46027888 -51.90234375 75.4609375 C-51.89448853 77.26763916 -51.89448853 77.26763916 -51.88647461 79.11083984 C-52 82 -52 82 -53 84 C-56.11252511 85.11221367 -59.10565957 85.12885976 -62.38671875 85.1328125 C-63.40701172 85.13410156 -64.42730469 85.13539063 -65.47851562 85.13671875 C-66.53748047 85.13285156 -67.59644531 85.12898438 -68.6875 85.125 C-69.75806641 85.12886719 -70.82863281 85.13273437 -71.93164062 85.13671875 C-72.94806641 85.13542969 -73.96449219 85.13414062 -75.01171875 85.1328125 C-76.41103638 85.13112061 -76.41103638 85.13112061 -77.83862305 85.12939453 C-80 85 -80 85 -81 84 C-81.10039611 81.41899244 -81.13617269 78.86472103 -81.12939453 76.28320312 C-81.13114685 75.47511703 -81.13289917 74.66703094 -81.13470459 73.8344574 C-81.13912376 71.1500334 -81.13618489 68.46567472 -81.1328125 65.78125 C-81.13348552 63.92419421 -81.13445553 62.0671385 -81.13571167 60.21008301 C-81.13718873 56.31273563 -81.13503382 52.41541113 -81.13037109 48.51806641 C-81.1246738 43.510655 -81.12795276 38.50329719 -81.13394356 33.49588776 C-81.13754895 29.65960279 -81.13641069 25.82333063 -81.13381577 21.98704529 C-81.13314644 20.14017226 -81.13397513 18.29329808 -81.13629532 16.44642639 C-81.13882149 13.86985168 -81.13498177 11.29336499 -81.12939453 8.71679688 C-81.13141876 7.9458519 -81.13344299 7.17490692 -81.13552856 6.38059998 C-81.11426255 1.11426255 -81.11426255 1.11426255 -80 0 C-78.00035018 -0.08758003 -75.9976389 -0.10696576 -73.99609375 -0.09765625 C-72.90224365 -0.09515869 -71.80839355 -0.09266113 -70.68139648 -0.09008789 C-68.58066772 -0.07643188 -68.58066772 -0.07643188 -66.4375 -0.0625 C-59.7859375 -0.0315625 -59.7859375 -0.0315625 -53 0 C-52.505 18.315 -52.505 18.315 -52 37 C-35.91053339 36.02191321 -35.91053339 36.02191321 -29 33 C-28.67 22.11 -28.34 11.22 -28 0 C-21.9053125 -0.2784375 -21.9053125 -0.2784375 -15.6875 -0.5625 C-13.77070435 -0.65446655 -13.77070435 -0.65446655 -11.81518555 -0.74829102 C-10.8075415 -0.79139404 -9.79989746 -0.83449707 -8.76171875 -0.87890625 C-7.2142395 -0.94960327 -7.2142395 -0.94960327 -5.63549805 -1.02172852 C-3 -1 -3 -1 0 0 Z " fill="#FFFFFF" transform="translate(819,46)"/>
<path d="M0 0 C4.47915328 -0.02886338 8.95828291 -0.04675187 13.4375 -0.0625 C14.71689453 -0.07087891 15.99628906 -0.07925781 17.31445312 -0.08789062 C19.13686523 -0.09272461 19.13686523 -0.09272461 20.99609375 -0.09765625 C22.12200928 -0.10289307 23.2479248 -0.10812988 24.40795898 -0.11352539 C27 0 27 0 28 1 C28.10757807 2.77836804 28.14625738 4.56094723 28.15771484 6.3425293 C28.16797699 7.48429123 28.17823914 8.62605316 28.18881226 9.80241394 C28.19611359 11.04710953 28.20341492 12.29180511 28.2109375 13.57421875 C28.23901312 16.18685515 28.26767763 18.79948527 28.296875 21.41210938 C28.33927618 25.54871221 28.37602444 29.68527752 28.40136719 33.82202148 C28.42640893 37.80213439 28.47486369 41.78182199 28.5234375 45.76171875 C28.52669037 46.99629318 28.52994324 48.23086761 28.53329468 49.50285339 C28.61935342 55.51590082 28.73075549 59.89092327 32 65 C32 65.66 32 66.32 32 67 C39.05672974 68.11631761 39.05672974 68.11631761 46 67.0625 C53.47495482 59.35395284 52.14919881 45.93652303 52.0625 35.99609375 C52.05871338 34.99159683 52.05492676 33.98709991 52.05102539 32.9521637 C52.03891822 29.78056307 52.02026401 26.60905832 52 23.4375 C51.9735025 19.22786744 51.95350632 15.0182777 51.9375 10.80859375 C51.92920166 9.83893173 51.92090332 8.86926971 51.91235352 7.870224 C51.90739868 6.53732079 51.90739868 6.53732079 51.90234375 5.17749023 C51.89710693 4.39268784 51.89187012 3.60788544 51.88647461 2.79930115 C52 1 52 1 53 0 C54.98757028 -0.09983058 56.9786752 -0.13080753 58.96875 -0.1328125 C60.17917969 -0.13410156 61.38960938 -0.13539062 62.63671875 -0.13671875 C63.91160156 -0.13285156 65.18648438 -0.12898438 66.5 -0.125 C68.41232422 -0.13080078 68.41232422 -0.13080078 70.36328125 -0.13671875 C72.17892578 -0.13478516 72.17892578 -0.13478516 74.03125 -0.1328125 C75.15080078 -0.13168457 76.27035156 -0.13055664 77.42382812 -0.12939453 C80 0 80 0 81 1 C81.0995933 3.14501367 81.12799752 5.29334979 81.12939453 7.44067383 C81.13202301 8.45073486 81.13202301 8.45073486 81.13470459 9.48120117 C81.13912929 11.72317027 81.13617938 13.96506124 81.1328125 16.20703125 C81.13348623 17.76869217 81.13445683 19.33035299 81.13571167 20.89201355 C81.13719017 24.17826325 81.13503242 27.46448586 81.13037109 30.75073242 C81.12472536 34.93200546 81.12791869 39.11321358 81.13394356 43.29448414 C81.13758951 46.52815726 81.13639135 49.7618155 81.13381577 52.99548912 C81.13315489 54.53462418 81.1339451 56.07376065 81.13629532 57.61289406 C81.14681468 66.45353923 80.9242517 75.19694721 80 84 C74.06001407 85.07181564 68.39532427 85.06123889 62.375 84.8125 C61.446875 84.79380859 60.51875 84.77511719 59.5625 84.75585938 C54.02793502 84.52987785 51.12804914 83.99204752 47 80 C43.85302793 80 41.45083135 80.81389682 38.55859375 82.0078125 C30.61769381 85.23839199 24.48610312 85.92647841 16.296875 83.05078125 C8.97115619 79.74982113 4.80206477 75.54198937 1.1875 68.4375 C-2.38072334 57.47471422 -1.15872394 44.3106026 -1.13037109 32.88549805 C-1.12498595 30.30576768 -1.13036414 27.72620967 -1.13671875 25.14648438 C-1.13975664 16.71481062 -1.04024718 8.38240179 0 0 Z " fill="#FFFFFF" transform="translate(407,46)"/>
<path d="M0 0 C4.6094084 4.00613205 7.00104645 7.45916223 7.72265625 13.59765625 C7.80623236 14.95068568 7.87635341 16.30496955 7.91015625 17.66015625 C3.72372231 19.75337322 -1.67748856 18.97814396 -6.27734375 19.03515625 C-7.40205078 19.07253906 -8.52675781 19.10992187 -9.68554688 19.1484375 C-16.98899884 19.22572271 -20.58318419 18.48312798 -26.08984375 13.66015625 C-30.49103287 12.33979951 -32.99274503 12.61160689 -37.08984375 14.66015625 C-36.38596767 17.81973028 -36.38596767 17.81973028 -33.7265625 19.171875 C-28.89278846 21.15003602 -23.97501064 22.26877917 -18.90234375 23.47265625 C-7.68830243 26.29043102 1.97380176 28.78066337 8.88671875 38.73046875 C11.78005421 44.18584172 11.70301519 50.90415498 10.44921875 56.84375 C8.02608672 64.15590723 3.72947179 68.96557969 -3.08984375 72.47265625 C-17.76446308 79.15289341 -33.70635008 79.44014772 -49.08984375 74.66015625 C-57.72825962 71.32914756 -64.87008952 67.63969982 -69.40234375 59.22265625 C-70.44423961 55.33922624 -70.92567703 51.33182281 -69.08984375 47.66015625 C-64.65246663 47.57325372 -60.21530741 47.51979699 -55.77734375 47.47265625 C-54.51470703 47.44751953 -53.25207031 47.42238281 -51.95117188 47.39648438 C-50.74267578 47.38681641 -49.53417969 47.37714844 -48.2890625 47.3671875 C-47.17362061 47.35147705 -46.05817871 47.3357666 -44.90893555 47.31958008 C-42.08984375 47.66015625 -42.08984375 47.66015625 -40.25708008 49.04956055 C-39.08984375 50.66015625 -39.08984375 50.66015625 -38.21484375 52.72265625 C-37.20182632 54.80007752 -37.20182632 54.80007752 -35.08984375 55.97265625 C-30.30199638 57.06987127 -24.54837555 56.88942215 -20.08984375 54.66015625 C-20.7565975 51.4975809 -20.7565975 51.4975809 -23.36328125 50.484375 C-24.38679687 50.10925781 -25.4103125 49.73414063 -26.46484375 49.34765625 C-27.63402344 48.91710937 -28.80320312 48.4865625 -30.0078125 48.04296875 C-33.73885679 46.74771176 -37.51134779 45.61051593 -41.29321289 44.47412109 C-60.22810081 38.74620119 -60.22810081 38.74620119 -65.30859375 31.4921875 C-67.47259022 27.44539184 -67.74555908 23.81450431 -67.65234375 19.28515625 C-67.64211182 18.53782227 -67.63187988 17.79048828 -67.62133789 17.02050781 C-67.35221217 10.01561516 -65.62283172 5.03879038 -60.48046875 0.12109375 C-45.31245176 -11.77675444 -15.13024604 -11.17606196 0 0 Z " fill="#FFFFFF" transform="translate(562.08984375,53.33984375)"/>
<path d="M0 0 C6.00315106 4.88628574 7.91053695 10.08921859 9.6796875 17.3671875 C5.98483665 21.06203835 -0.07948519 19.78048629 -5.0703125 19.8046875 C-6.84148438 19.85399414 -6.84148438 19.85399414 -8.6484375 19.90429688 C-18.39195215 19.96464522 -18.39195215 19.96464522 -21.92578125 16.89453125 C-22.71597656 16.06050781 -23.50617187 15.22648437 -24.3203125 14.3671875 C-28.64574854 13.3047997 -32.02525981 13.19580949 -36.3203125 14.3671875 C-36.16185882 16.32390086 -36.16185882 16.32390086 -35.3203125 18.3671875 C-33.40265623 19.5705683 -33.40265623 19.5705683 -30.8828125 20.3046875 C-29.89539063 20.6346875 -28.90796875 20.9646875 -27.890625 21.3046875 C-24.47866379 22.32006326 -21.05522884 23.25671268 -17.6159668 24.17358398 C3.73487785 29.88762616 3.73487785 29.88762616 9.6796875 39.3671875 C12.92698549 46.2313036 12.6334078 53.50574151 10.1796875 60.6171875 C7.00616846 67.60780636 1.81460974 71.66435162 -5.1328125 74.6796875 C-21.70226427 80.57385889 -39.32668377 79.57258892 -55.3203125 72.3671875 C-60.47908212 69.64165072 -65.09938632 66.73267876 -67.7421875 61.375 C-68.8726359 57.44898326 -68.79185215 53.40233004 -68.3203125 49.3671875 C-65.59000783 46.63688283 -57.61738149 48.03332066 -53.9453125 47.9921875 C-52.6871875 47.95480469 -51.4290625 47.91742188 -50.1328125 47.87890625 C-48.32683594 47.86150391 -48.32683594 47.86150391 -46.484375 47.84375 C-44.82075928 47.814021 -44.82075928 47.814021 -43.12353516 47.78369141 C-40.3203125 48.3671875 -40.3203125 48.3671875 -38.52368164 50.78979492 C-38.12656982 51.64033447 -37.72945801 52.49087402 -37.3203125 53.3671875 C-35.67189376 55.4152229 -34.80665994 56.22915747 -32.26953125 56.94921875 C-27.48626413 57.43663284 -23.75735503 57.58570876 -19.3203125 55.3671875 C-18.9903125 54.3771875 -18.6603125 53.3871875 -18.3203125 52.3671875 C-23.23387322 50.70008654 -28.16027078 49.0991183 -33.11914062 47.57128906 C-35.88604193 46.71623066 -38.64844291 45.84739762 -41.40917969 44.97265625 C-43.11015066 44.43376918 -44.81277545 43.90010863 -46.515625 43.3671875 C-53.9387835 40.88590889 -60.63945849 37.7242194 -64.8203125 30.8046875 C-67.68758141 24.16536705 -67.36168239 15.85012294 -65.3203125 8.9921875 C-62.14967584 1.96937547 -55.4167875 -1.98933806 -48.59375 -4.90625 C-34.207138 -9.50403322 -12.56228171 -8.80923489 0 0 Z " fill="#FFFFFF" transform="translate(721.3203125,52.6328125)"/>
<path d="M0 0 C14.52 0 29.04 0 44 0 C47.85914222 15.19024067 51.63460829 30.39666003 55.21609497 45.65475464 C55.60788358 47.31855816 56.00286659 48.98161333 56.40133667 50.64382935 C58.462869 59.25930065 60.2687086 67.81075461 61.32421875 76.61328125 C61.45592216 77.70820137 61.45592216 77.70820137 61.59028625 78.82524109 C61.7752011 80.54564975 61.89455364 82.27289823 62 84 C59.38295946 86.61704054 52.14032509 85.33241346 48.625 85.375 C46.88089844 85.43107422 46.88089844 85.43107422 45.1015625 85.48828125 C43.9878125 85.49988281 42.8740625 85.51148438 41.7265625 85.5234375 C40.70127441 85.54325684 39.67598633 85.56307617 38.61962891 85.58349609 C36 85 36 85 34.20458984 82.65478516 C33 80 33 80 32 77 C25.2314676 76.89847201 18.69675136 76.96973056 12 78 C11.731875 78.969375 11.46375 79.93875 11.1875 80.9375 C10.795625 81.948125 10.40375 82.95875 10 84 C6.8815675 85.0394775 4.72524414 85.11494838 1.45703125 85.09765625 C0.38388672 85.09443359 -0.68925781 85.09121094 -1.79492188 85.08789062 C-2.91447266 85.07951172 -4.03402344 85.07113281 -5.1875 85.0625 C-6.31865234 85.05798828 -7.44980469 85.05347656 -8.61523438 85.04882812 C-11.41020927 85.03703498 -14.2050782 85.0205765 -17 85 C-18.49375869 82.64076324 -19.03825556 81.38585017 -18.7590332 78.56958008 C-18.52531006 77.64556396 -18.29158691 76.72154785 -18.05078125 75.76953125 C-17.78475098 74.67930664 -17.5187207 73.58908203 -17.24462891 72.46582031 C-16.93702637 71.26022461 -16.62942383 70.05462891 -16.3125 68.8125 C-15.65717235 66.13740145 -15.00480921 63.46170314 -14.35546875 60.78515625 C-14.08512817 59.67930679 -14.08512817 59.67930679 -13.80932617 58.55111694 C-12.16333208 51.77978527 -10.62963522 44.98499885 -9.11328125 38.18359375 C-8.86675308 37.077845 -8.62022491 35.97209625 -8.3662262 34.83283997 C-7.36837806 30.35048931 -6.37279358 25.86764015 -5.3788147 21.38442993 C-4.67407138 18.20890423 -3.9661648 15.03409727 -3.2578125 11.859375 C-3.04453812 10.89297592 -2.83126373 9.92657684 -2.61152649 8.93089294 C-2.41375107 8.04587601 -2.21597565 7.16085907 -2.01220703 6.24902344 C-1.84012726 5.47347107 -1.66804749 4.6979187 -1.49075317 3.89886475 C-1 2 -1 2 0 0 Z M20 30 C17.5558124 36.0332102 15.99351685 41.93005554 14.75 48.3125 C14.564375 49.20517578 14.37875 50.09785156 14.1875 51.01757812 C14.01734375 51.87416016 13.8471875 52.73074219 13.671875 53.61328125 C13.44129395 54.77017456 13.44129395 54.77017456 13.20605469 55.95043945 C12.83871276 58.19870514 12.83871276 58.19870514 14 61 C18.29 61 22.58 61 27 61 C27.90660516 56.46697421 28.00368509 54.83758803 27.0390625 50.5859375 C26.70261719 49.07386719 26.70261719 49.07386719 26.359375 47.53125 C25.99585938 45.96890625 25.99585938 45.96890625 25.625 44.375 C25.39039063 43.32570313 25.15578125 42.27640625 24.9140625 41.1953125 C23.64395854 35.54652193 23.64395854 35.54652193 22 30 C21.34 30 20.68 30 20 30 Z " fill="#FFFFFF" transform="translate(591,46)"/>
<path d="M0 0 C0.1898543 29.52964598 0.1898543 29.52964598 -0.4375 40.8125 C-0.47673584 41.5451709 -0.51597168 42.2778418 -0.55639648 43.03271484 C-0.86581465 47.86581465 -0.86581465 47.86581465 -2 49 C-3.82985622 49.09962237 -5.66352878 49.13080452 -7.49609375 49.1328125 C-8.61177734 49.13410156 -9.72746094 49.13539063 -10.87695312 49.13671875 C-12.63942383 49.13091797 -12.63942383 49.13091797 -14.4375 49.125 C-15.60861328 49.12886719 -16.77972656 49.13273437 -17.98632812 49.13671875 C-19.10330078 49.13542969 -20.22027344 49.13414062 -21.37109375 49.1328125 C-22.40161865 49.13168457 -23.43214355 49.13055664 -24.49389648 49.12939453 C-27 49 -27 49 -29 48 C-29.07401212 41.91278769 -29.12853646 35.82583574 -29.16479492 29.73828125 C-29.17990586 27.66629476 -29.20039541 25.59434037 -29.22631836 23.52246094 C-29.26260051 20.54874767 -29.27970298 17.57545627 -29.29296875 14.6015625 C-29.30845261 13.67131256 -29.32393646 12.74106262 -29.33988953 11.78262329 C-29.34011612 10.92188202 -29.34034271 10.06114075 -29.34057617 9.17431641 C-29.34723801 8.41486725 -29.35389984 7.65541809 -29.36076355 6.87295532 C-29.24171158 6.25488007 -29.12265961 5.63680481 -29 5 C-24.66318077 2.10878718 -20.14087339 1.71365915 -15.0625 0.8125 C-14.06025391 0.62236328 -13.05800781 0.43222656 -12.02539062 0.23632812 C-10.57616211 -0.02567383 -10.57616211 -0.02567383 -9.09765625 -0.29296875 C-8.21601807 -0.4530542 -7.33437988 -0.61313965 -6.42602539 -0.77807617 C-3.9864515 -1.00123937 -2.31441269 -0.74906721 0 0 Z " fill="#FFFFFF" transform="translate(854,82)"/>
<path d="M0 0 C-0.33 8.25 -0.66 16.5 -1 25 C-8.88803721 27.25372492 -8.88803721 27.25372492 -12.76953125 27.66796875 C-13.59517578 27.75626953 -14.42082031 27.84457031 -15.27148438 27.93554688 C-16.11001953 28.01869141 -16.94855469 28.10183594 -17.8125 28.1875 C-18.67037109 28.28224609 -19.52824219 28.37699219 -20.41210938 28.47460938 C-26.7452809 29.12735955 -26.7452809 29.12735955 -29 28 C-29.02918874 24.29168337 -29.04686218 20.58339658 -29.0625 16.875 C-29.07087891 15.82828125 -29.07925781 14.7815625 -29.08789062 13.703125 C-29.10375207 8.6909095 -29.08177213 3.92334088 -28 -1 C-24.08414605 -1.2260865 -20.16740577 -1.42778506 -16.25 -1.625 C-14.58324219 -1.72167969 -14.58324219 -1.72167969 -12.8828125 -1.8203125 C-11.81289063 -1.871875 -10.74296875 -1.9234375 -9.640625 -1.9765625 C-8.65610352 -2.02893066 -7.67158203 -2.08129883 -6.65722656 -2.13525391 C-4 -2 -4 -2 0 0 Z " fill="#FFFFFF" transform="translate(854,47)"/>
</svg>
